<?xml version="1.0" encoding="UTF-8"?>
<svg width="102px" height="44px" viewBox="0 0 102 44" version="1.1" xmlns="http://www.w3.org/2000/svg" xmlns:xlink="http://www.w3.org/1999/xlink">
    <!-- Generator: Sketch 55.1 (78136) - https://sketchapp.com -->
    <title>icons/chevrons/up</title>
    <desc>Created with Sketch.</desc>
    <g id="icons/chevrons/up" stroke="none" stroke-width="1" fill="none" fill-rule="evenodd">
        <path d="M53.3496178,43.1964423 L100.441235,7.15627382 C102.160812,5.83608777 102.510836,3.35082265 101.224877,1.59220561 L101.224877,1.59220561 C99.9275023,-0.159518956 97.4835174,-0.515863622 95.7550604,0.794680309 L53.3496178,33.2486434 C51.9614122,34.3093528 50.0516485,34.3093528 48.6634429,33.2486434 L6.24493965,0.797338727 C5.41637034,0.162954651 4.37368387,-0.109518658 3.34730306,0.0401325603 C2.32092226,0.189783778 1.39534832,0.749238847 0.775123417,1.59486403 L0.775123417,1.59486403 C-0.510836253,3.35348106 -0.160812439,5.83874619 1.55876471,7.15893224 L48.6477701,43.1964423 C50.0382658,44.2678526 51.9591221,44.2678526 53.3496178,43.1964423 L53.3496178,43.1964423 Z" id="Path" fill="#E67937" transform="translate(51.000000, 22.000000) scale(1, -1) translate(-51.000000, -22.000000) "></path>
    </g>
</svg>