<?xml version="1.0" encoding="UTF-8"?>
<svg width="72px" height="72px" viewBox="0 0 72 72" version="1.1" xmlns="http://www.w3.org/2000/svg" xmlns:xlink="http://www.w3.org/1999/xlink">
    <!-- Generator: Sketch 55.1 (78136) - https://sketchapp.com -->
    <title>icons/socialmedia/facebook</title>
    <desc>Created with Sketch.</desc>
    <g id="icons/socialmedia/facebook" stroke="none" stroke-width="1" fill="none" fill-rule="evenodd">
        <g id="Facebook-Logo">
            <path d="M72,36 C72,16.1177344 55.8822656,0 36,0 C16.1177344,0 0,16.1177344 0,36 C0,53.9686406 13.1646797,68.8619531 30.375,71.5626563 L30.375,46.40625 L21.234375,46.40625 L21.234375,36 L30.375,36 L30.375,28.06875 C30.375,19.04625 35.7495469,14.0625 43.9727344,14.0625 C47.9114297,14.0625 52.03125,14.765625 52.03125,14.765625 L52.03125,23.625 L47.4917344,23.625 C43.0196484,23.625 41.625,26.4000234 41.625,29.2469766 L41.625,36 L51.609375,36 L50.0132813,46.40625 L41.625,46.40625 L41.625,71.5626563 C58.8353203,68.8619531 72,53.9686406 72,36" id="Outer-Circle" fill="#000000"></path>
            <path d="M50.0132813,46.40625 L51.609375,36 L41.625,36 L41.625,29.2469766 C41.625,26.4000234 43.0196484,23.625 47.4917344,23.625 L52.03125,23.625 L52.03125,14.765625 C52.03125,14.765625 47.9114297,14.0625 43.9727344,14.0625 C35.7495469,14.0625 30.375,19.04625 30.375,28.06875 L30.375,36 L21.234375,36 L21.234375,46.40625 L30.375,46.40625 L30.375,71.5626563 C32.2078359,71.8502344 34.086375,72 36,72 C37.913625,72 39.7921641,71.8502344 41.625,71.5626563 L41.625,46.40625 L50.0132813,46.40625" id="F" fill="#FFFFFF"></path>
        </g>
    </g>
</svg>