<?xml version="1.0" encoding="UTF-8"?>
<svg width="72px" height="72px" viewBox="0 0 72 72" version="1.1" xmlns="http://www.w3.org/2000/svg" xmlns:xlink="http://www.w3.org/1999/xlink">
    <!-- Generator: Sketch 55.1 (78136) - https://sketchapp.com -->
    <title>icons/socialmedia/instagram</title>
    <desc>Created with Sketch.</desc>
    <g id="icons/socialmedia/instagram" stroke="none" stroke-width="1" fill="none" fill-rule="evenodd">
        <g id="Instagram-Logo" fill="#000000">
            <path d="M35.9887143,0.0227142857 C26.2147143,0.0227142857 24.9891429,0.0641428571 21.1505714,0.239285714 C17.32,0.414 14.7038571,1.02242857 12.4147143,1.91214286 C10.0481429,2.83171429 8.04114286,4.06228571 6.04028571,6.063 C4.03957143,8.06385714 2.809,10.0708571 1.88942857,12.4374286 C0.999714286,14.7265714 0.391285714,17.3427143 0.216571429,21.1732857 C0.0414285714,25.0118571 0,26.2374286 0,36.0114286 C0,45.7852857 0.0414285714,47.0108571 0.216571429,50.8494286 C0.391285714,54.68 0.999714286,57.2961429 1.88942857,59.5852857 C2.809,61.9518571 4.03957143,63.9588571 6.04028571,65.9597143 C8.04114286,67.9604286 10.0481429,69.191 12.4147143,70.1107143 C14.7038571,71.0002857 17.32,71.6087143 21.1505714,71.7834286 C24.9891429,71.9585714 26.2147143,72 35.9887143,72 C45.7625714,72 46.9881429,71.9585714 50.8267143,71.7834286 C54.6572857,71.6087143 57.2734286,71.0002857 59.5625714,70.1107143 C61.9291429,69.191 63.9361429,67.9604286 65.937,65.9597143 C67.9377143,63.9588571 69.1682857,61.9518571 70.088,59.5852857 C70.9775714,57.2961429 71.586,54.68 71.7607143,50.8494286 C71.9358571,47.0108571 71.9772857,45.7852857 71.9772857,36.0114286 C71.9772857,26.2374286 71.9358571,25.0118571 71.7607143,21.1732857 C71.586,17.3427143 70.9775714,14.7265714 70.088,12.4374286 C69.1682857,10.0708571 67.9377143,8.06385714 65.937,6.063 C63.9361429,4.06228571 61.9291429,2.83171429 59.5625714,1.91214286 C57.2734286,1.02242857 54.6572857,0.414 50.8267143,0.239285714 C46.9881429,0.0641428571 45.7625714,0.0227142857 35.9887143,0.0227142857 Z M35.9887143,6.50714286 C45.598,6.50714286 46.7362857,6.54385714 50.5311429,6.717 C54.04,6.877 55.9455714,7.46328571 57.2137143,7.95614286 C58.8935714,8.609 60.0924286,9.38885714 61.3517143,10.6482857 C62.6111429,11.9075714 63.391,13.1064286 64.0438571,14.7862857 C64.5367143,16.0544286 65.123,17.96 65.283,21.4688571 C65.4561429,25.2637143 65.4928571,26.402 65.4928571,36.0114286 C65.4928571,45.6207143 65.4561429,46.759 65.283,50.5538571 C65.123,54.0627143 64.5367143,55.9682857 64.0438571,57.2364286 C63.391,58.9162857 62.6111429,60.1151429 61.3517143,61.3744286 C60.0924286,62.6338571 58.8935714,63.4137143 57.2137143,64.0665714 C55.9455714,64.5594286 54.04,65.1457143 50.5311429,65.3057143 C46.7368571,65.4788571 45.5987143,65.5155714 35.9887143,65.5155714 C26.3785714,65.5155714 25.2405714,65.4788571 21.4461429,65.3057143 C17.9372857,65.1457143 16.0317143,64.5594286 14.7635714,64.0665714 C13.0837143,63.4137143 11.8848571,62.6338571 10.6255714,61.3744286 C9.36628571,60.1151429 8.58628571,58.9162857 7.93342857,57.2364286 C7.44057143,55.9682857 6.85428571,54.0627143 6.69428571,50.5538571 C6.52114286,46.759 6.48442857,45.6207143 6.48442857,36.0114286 C6.48442857,26.402 6.52114286,25.2637143 6.69428571,21.4688571 C6.85428571,17.96 7.44057143,16.0544286 7.93342857,14.7862857 C8.58628571,13.1064286 9.36614286,11.9075714 10.6255714,10.6482857 C11.8848571,9.38885714 13.0837143,8.609 14.7635714,7.95614286 C16.0317143,7.46328571 17.9372857,6.877 21.4461429,6.717 C25.241,6.54385714 26.3792857,6.50714286 35.9887143,6.50714286 L35.9887143,6.50714286 Z" id="Body"></path>
            <path d="M35.9887143,48.0075714 C29.3632857,48.0075714 23.9924286,42.6367143 23.9924286,36.0114286 C23.9924286,29.386 29.3632857,24.0151429 35.9887143,24.0151429 C42.614,24.0151429 47.9848571,29.386 47.9848571,36.0114286 C47.9848571,42.6367143 42.614,48.0075714 35.9887143,48.0075714 Z M35.9887143,17.5307143 C25.782,17.5307143 17.508,25.8047143 17.508,36.0114286 C17.508,46.218 25.782,54.492 35.9887143,54.492 C46.1952857,54.492 54.4692857,46.218 54.4692857,36.0114286 C54.4692857,25.8047143 46.1952857,17.5307143 35.9887143,17.5307143 L35.9887143,17.5307143 Z" id="Lens"></path>
            <path d="M59.5181429,16.8005714 C59.5181429,19.1857143 57.5845714,21.1191429 55.1994286,21.1191429 C52.8144286,21.1191429 50.8808571,19.1857143 50.8808571,16.8005714 C50.8808571,14.4154286 52.8144286,12.4818571 55.1994286,12.4818571 C57.5845714,12.4818571 59.5181429,14.4154286 59.5181429,16.8005714" id="Flash"></path>
        </g>
    </g>
</svg>