<?xml version="1.0" encoding="UTF-8"?>
<svg width="72px" height="72px" viewBox="0 0 72 72" version="1.1" xmlns="http://www.w3.org/2000/svg" xmlns:xlink="http://www.w3.org/1999/xlink">
    <!-- Generator: Sketch 55.1 (78136) - https://sketchapp.com -->
    <title>icons/socialmedia/twitter</title>
    <desc>Created with Sketch.</desc>
    <g id="icons/socialmedia/twitter" stroke="none" stroke-width="1" fill="none" fill-rule="evenodd">
        <g id="Twitter-Logo">
            <circle id="Outer-Circle" fill="#000000" cx="36" cy="36" r="36"></circle>
            <path d="M29.412,54.99 C45.378,54.99 54.108,41.76 54.108,30.294 C54.108,29.916 54.108,29.538 54.09,29.178 C55.782,27.954 57.258,26.424 58.428,24.678 C56.88,25.362 55.206,25.83 53.442,26.046 C55.242,24.966 56.61,23.274 57.258,21.24 C55.584,22.23 53.73,22.95 51.75,23.346 C50.166,21.654 47.916,20.61 45.414,20.61 C40.626,20.61 36.738,24.498 36.738,29.286 C36.738,29.97 36.81,30.636 36.972,31.266 C29.754,30.906 23.364,27.45 19.08,22.194 C18.342,23.472 17.91,24.966 17.91,26.55 C17.91,29.556 19.44,32.22 21.78,33.768 C20.358,33.732 19.026,33.336 17.856,32.688 C17.856,32.724 17.856,32.76 17.856,32.796 C17.856,37.008 20.844,40.5 24.822,41.31 C24.102,41.508 23.328,41.616 22.536,41.616 C21.978,41.616 21.438,41.562 20.898,41.454 C21.996,44.91 25.2,47.412 28.998,47.484 C26.028,49.806 22.284,51.192 18.216,51.192 C17.514,51.192 16.83,51.156 16.146,51.066 C19.944,53.55 24.516,54.99 29.412,54.99" id="Birb" fill="#FFFFFF"></path>
        </g>
    </g>
</svg>