<?xml version="1.0" encoding="UTF-8"?>
<svg width="72px" height="72px" viewBox="0 0 72 72" version="1.1" xmlns="http://www.w3.org/2000/svg" xmlns:xlink="http://www.w3.org/1999/xlink">
    <!-- Generator: Sketch 55.1 (78136) - https://sketchapp.com -->
    <title>icons/close/black</title>
    <desc>Created with Sketch.</desc>
    <g id="icons/close/black" stroke="none" stroke-width="1" fill="none" fill-rule="evenodd">
        <path d="M39.182125,35.999875 L71.341125,3.840875 C72.219625,2.962125 72.219625,1.537625 71.341125,0.658875 C70.462125,-0.219625 69.037875,-0.219625 68.158875,0.658875 L35.999875,32.817875 L3.841125,0.658875 C2.962125,-0.219625 1.537875,-0.219625 0.658875,0.658875 C-0.219625,1.537625 -0.219625,2.962125 0.658875,3.840875 L32.817875,35.999875 L0.658875,68.158875 C-0.219625,69.037625 -0.219625,70.462125 0.658875,71.340875 C1.098375,71.780125 1.674125,71.999875 2.249875,71.999875 C2.825875,71.999875 3.401625,71.780125 3.841125,71.340875 L35.999875,39.181875 L68.158875,71.340875 C68.598375,71.780125 69.174125,71.999875 69.749875,71.999875 C70.325875,71.999875 70.901625,71.780125 71.341125,71.340875 C72.219625,70.462125 72.219625,69.037625 71.341125,68.158875 L39.182125,35.999875 Z" id="Fill-1" fill="#000000"></path>
    </g>
</svg>