<?xml version="1.0" encoding="UTF-8"?>
<svg width="72px" height="72px" viewBox="0 0 72 72" version="1.1" xmlns="http://www.w3.org/2000/svg" xmlns:xlink="http://www.w3.org/1999/xlink">
    <!-- Generator: Sketch 55.1 (78136) - https://sketchapp.com -->
    <title>icons/search</title>
    <desc>Created with Sketch.</desc>
    <g id="icons/search" stroke="none" stroke-width="1" fill="none" fill-rule="evenodd">
        <rect id="Backer" x="0" y="0" width="72" height="72"></rect>
        <path d="M52.5180234,51.2264827 L65.5757871,64.0758059 C66.3630943,64.8505454 66.3732825,66.1168343 65.5985431,66.9041415 C65.5910189,66.9117877 65.5834333,66.9193733 65.5757871,66.9268974 L64.8673379,67.6240377 C64.0889739,68.3899767 62.8401222,68.3899767 62.0617582,67.6240377 L48.4971047,54.2759162 C44.214603,56.9479934 39.1357158,58.4951853 33.6896006,58.4951853 C18.3970564,58.4951853 6,46.2960225 6,31.2475927 C6,16.1991628 18.3970564,4 33.6896006,4 C48.9821447,4 61.3792012,16.1991628 61.3792012,31.2475927 C61.3792012,39.1409092 57.9684091,46.2503093 52.5180234,51.2264827 Z M33.6896006,53.5410776 C46.2016821,53.5410776 56.3447283,43.5599444 56.3447283,31.2475927 C56.3447283,18.9352409 46.2016821,8.95410776 33.6896006,8.95410776 C21.177519,8.95410776 11.0344728,18.9352409 11.0344728,31.2475927 C11.0344728,43.5599444 21.177519,53.5410776 33.6896006,53.5410776 Z" id="Search" fill="#000000"></path>
    </g>
</svg>