<?xml version="1.0" encoding="UTF-8"?>
<svg width="187px" height="72px" viewBox="0 0 187 72" version="1.1" xmlns="http://www.w3.org/2000/svg" xmlns:xlink="http://www.w3.org/1999/xlink">
    <!-- Generator: Sketch 55.1 (78136) - https://sketchapp.com -->
    <title>icons/BEST/Best-v1-black</title>
    <desc>Created with Sketch.</desc>
    <defs>
        <polygon id="path-1" points="147.727876 0.592730935 186.853301 0.592730935 186.853301 50.9802993 147.727876 50.9802993"></polygon>
    </defs>
    <g id="icons/BEST/Best-v1-black" stroke="none" stroke-width="1" fill="none" fill-rule="evenodd">
        <g id="Group">
            <path d="M72.3351224,62.7728633 L72.3351224,71.9593381 L136.413962,71.9593381 C126.342898,68.3583022 106.258787,63.2732374 72.3351224,62.7728633" id="Fill-1" fill="#000000"></path>
            <path d="M1.42108547e-13,66.4427914 L1.42108547e-13,71.9593381 L63.0956648,71.9593381 L63.0956648,62.7101871 C36.4826122,63.0080288 13.0428615,64.261554 1.42108547e-13,66.4427914" id="Fill-3" fill="#000000"></path>
            <path d="M20.4321069,41.8657727 C24.6559241,41.8657727 27.3236526,39.0500029 27.3236526,34.9009381 C27.3236526,30.8254273 24.5818493,28.0096576 19.8395086,28.0096576 L10.8728327,28.0096576 L10.8728327,41.8657727 L20.4321069,41.8657727 Z M18.8760183,19.1919885 C22.210938,19.1919885 24.4336997,17.339154 24.4336997,14.4487942 C24.4336997,11.5594705 22.5813119,9.70663597 19.3950598,9.70663597 L10.8728327,9.70663597 L10.8728327,19.1919885 L18.8760183,19.1919885 Z M0.498735734,0.592679137 L19.9876582,0.592679137 C29.3987828,0.592679137 34.6596471,6.52102446 34.6596471,13.6345209 C34.6596471,18.3026072 31.9178438,21.4887367 27.545877,22.8966216 C34.4374227,24.5267223 37.7718244,29.1207367 37.7718244,35.4194417 C37.7718244,44.3852547 31.3993202,50.9802475 20.8765557,50.9802475 L0.498735734,50.9802475 L0.498735734,0.592679137 Z" id="Fill-5" fill="#000000"></path>
            <polygon id="Fill-7" fill="#000000" points="53.1069122 0.592834532 86.4524828 0.592834532 86.4524828 9.70679137 63.4810091 9.70679137 63.4810091 25.7125468 83.7106795 25.7125468 83.7106795 34.6042878 63.4810091 34.6042878 63.4810091 41.8659281 87.4900479 41.8659281 87.4900479 50.9798849 53.1069122 50.9798849"></polygon>
            <path d="M100.527729,41.0508777 L108.975364,36.1605755 C111.198643,39.7911367 114.088078,42.4592806 119.201311,42.4592806 C123.499203,42.4592806 126.241006,40.3096403 126.241006,37.3462446 C126.241006,33.7887194 123.425128,32.5294964 118.682788,30.454964 L116.089134,29.3433669 C108.604472,26.1572374 103.639907,22.1552806 103.639907,13.7084892 C103.639907,5.92782734 109.56848,-7.10542736e-14 118.830419,-7.10542736e-14 C125.426184,-7.10542736e-14 130.168524,2.29726619 133.577001,8.29864748 L125.500258,13.4862734 C123.721427,10.3001439 121.794965,9.03988489 118.830419,9.03988489 C115.792835,9.03988489 113.866372,10.9667914 113.866372,13.4862734 C113.866372,16.5983309 115.792835,17.8580719 120.238876,19.7844604 L122.83253,20.8960576 C131.650538,24.6752806 136.615103,28.5280576 136.615103,37.1981007 C136.615103,46.5342734 129.279109,51.6467914 119.424053,51.6467914 C109.790186,51.6467914 103.565832,47.052777 100.527729,41.0508777" id="Fill-9" fill="#000000"></path>
            <mask id="mask-2" fill="white">
                <use xlink:href="#path-1"></use>
            </mask>
            <g id="Clip-12"></g>
            <polygon id="Fill-11" fill="#000000" mask="url(#mask-2)" points="162.103566 9.70668777 147.727876 9.70668777 147.727876 0.592730935 186.853353 0.592730935 186.853353 9.70668777 172.477145 9.70668777 172.477145 50.9802993 162.103566 50.9802993"></polygon>
        </g>
    </g>
</svg>