<svg height="72" viewBox="0 0 187 72" width="187" xmlns="http://www.w3.org/2000/svg" xmlns:xlink="http://www.w3.org/1999/xlink"><mask id="a" fill="#fff"><path d="m147.727876.59273093h39.125425v50.38756837h-39.125425z" fill="#fff" fill-rule="evenodd"/></mask><g fill="#fff" fill-rule="evenodd"><path d="m72.3351224 62.7728633v9.1864748h64.0788396c-10.071064-3.6010359-30.155175-8.6861007-64.0788396-9.1864748"/><path d="m0 66.4427914v5.5165467h63.0956648v-9.249151c-26.6130526.2978417-50.0528033 1.5513669-63.0956648 3.7326043"/><path d="m20.4321069 41.8657727c4.2238172 0 6.8915457-2.8157698 6.8915457-6.9648346 0-4.0755108-2.7418033-6.8912805-7.484144-6.8912805h-8.9666759v13.8561151zm-1.5560886-22.6737842c3.3349197 0 5.5576814-1.8528345 5.5576814-4.7431943 0-2.8893237-1.8523878-4.74215823-5.0386399-4.74215823h-8.5222271v9.48535253zm-18.37728257-18.59930936h19.48892247c9.4111246 0 14.6719889 5.92834532 14.6719889 13.04184176 0 4.6680863-2.7418033 7.8542158-7.1137701 9.2621007 6.8915457 1.6301007 10.2259474 6.2241151 10.2259474 12.5228201 0 8.965813-6.3725042 15.5608058-16.8952687 15.5608058h-20.37781997z"/><path d="m53.1069122.59283453h33.3455706v9.11395684h-22.9714737v16.00575543h20.2296704v8.891741h-20.2296704v7.2616403h24.0090388v9.1139568h-34.3831357z"/><path d="m100.527729 41.0508777 8.447635-4.8903022c2.223279 3.6305612 5.112714 6.2987051 10.225947 6.2987051 4.297892 0 7.039695-2.1496403 7.039695-5.113036 0-3.5575252-2.815878-4.8167482-7.558218-6.8912806l-2.593654-1.1115971c-7.484662-3.1861295-12.449227-7.1880863-12.449227-15.6348777 0-7.78066186 5.928573-13.7084892 15.190512-13.7084892 6.595765 0 11.338105 2.29726619 14.746582 8.29864748l-8.076743 5.18762592c-1.778831-3.1861295-3.705293-4.44638851-6.669839-4.44638851-3.037584 0-4.964047 1.92690651-4.964047 4.44638851 0 3.1120575 1.926463 4.3717985 6.372504 6.298187l2.593654 1.1115972c8.818008 3.779223 13.782573 7.632 13.782573 16.3020431 0 9.3361727-7.335994 14.4486907-17.19105 14.4486907-9.633867 0-15.858221-4.5940144-18.896324-10.5959137"/><path d="m162.103566 9.70668777h-14.37569v-9.11395684h39.125477v9.11395684h-14.376208v41.27361153h-10.373579z" mask="url(#a)"/></g></svg>